# xmcd
#
# Track frame offsets:
#	150
#	15094
#	25966
#	43068
#	51971
#	58330
#	60284
#	82389
#	96322
#	104890
#	119597
#	136631
#	146231
#	160314
#	175750
#
# Disc length: 2581 seconds
#
# Revision: 0
# Processed by: cddbd v1.5.1PL2 Copyright (c) Steve Scherf et al.
# Submitted via: dBpowerAMP V4.0
#
DISCID=d80a130f
DTITLE=Девять - Ожидание Четверга. Да.
DYEAR=2005
DGENRE=Pop-Folk
TTITLE0=Клево
TTITLE1=Монголия
TTITLE2=Кот
TTITLE3=Танго
TTITLE4=Амели
TTITLE5=Интродукция
TTITLE6=Особенная
TTITLE7=Кораблики
TTITLE8=Снегурочка
TTITLE9=Поезд
TTITLE10=Чуковский
TTITLE11=Лето Прошло
TTITLE12=Лавэ
TTITLE13=Слон
TTITLE14=Лето Раздето
EXTD=
EXTT0=
EXTT1=
EXTT2=
EXTT3=
EXTT4=
EXTT5=
EXTT6=
EXTT7=
EXTT8=
EXTT9=
EXTT10=
EXTT11=
EXTT12=
EXTT13=
EXTT14=
PLAYORDER=
